<svg width="128" height="128" viewBox="0 0 128 128" fill="none" xmlns="http://www.w3.org/2000/svg">
<rect width="128" height="128" fill="#05A54B"/>
<path d="M23.3249 16C21.4886 16 20 17.4877 20 19.323V68.4059C20 70.3327 20.124 72.2305 20.3644 74.0919C20.5872 75.8166 22.6232 76.5061 23.9413 75.3717L51.753 51.434C52.7152 50.6058 52.8234 49.1543 51.9947 48.1926L50.5471 46.5126C49.3922 45.1723 50.1217 43.0845 51.86 42.7551L83.5638 36.7481C85.3018 36.4188 86.7444 38.0944 86.1605 39.7641L75.5138 70.2084C74.9301 71.8776 72.7585 72.2894 71.6042 70.9498L70.152 69.2644C69.3239 68.3035 67.8738 68.1953 66.9124 69.0228L34.0924 97.2711C33.0933 98.1311 33.0174 99.6581 33.9812 100.557C41.8427 107.892 52.3969 112.381 64 112.381C88.3005 112.381 108 92.6927 108 68.4059V19.323C108 17.4877 106.511 16 104.675 16H23.3249Z" fill="#FAF3F3"/>
</svg>
